ffmpeg started on 2025-07-16 at 17:39:15
Report written to "D:\Convert\FFMetrics\reports\psnr_report-6.txt"
Log level: 32
Command line:
ffmpeg -hide_banner -nostdin -i "G:\\\xc0\xed\xe8\xec\xe5\\Shiza\\\xcb\xe5\xe3\xe5\xed\xe4\xe0 \xee \xc3\xf0\xe0\xed\xea\xf0\xe5\xf1\xf2\xe5\\[SHIZA Project] Grancrest Senki TV [22] [nDrOiDze & Lizaveta]_HEVC.mkv" -i "G:\\\xc0\xed\xe8\xec\xe5\\Shiza\\\xcb\xe5\xe3\xe5\xed\xe4\xe0 \xee \xc3\xf0\xe0\xed\xea\xf0\xe5\xf1\xf2\xe5\\[SHIZA Project] Grancrest Senki TV [22] [nDrOiDze & Lizaveta].mkv" -lavfi "[0:v]settb=AVTB,setpts=PTS-STARTPTS,format=pix_fmts=yuv420p10,fps=24000/1001,scale=1280:720:flags=bicubic[main];[1:v]settb=AVTB,setpts=PTS-STARTPTS,format=pix_fmts=yuv420p,fps=24000/1001,scale=1280:720:flags=bicubic[ref];[main][ref]psnr=eof_action=endall:stats_file='D\\:/Convert/FFMetrics/logs/psnr_logfile-6.txt'" -f null -
Input #0, matroska,webm, from 'G:\Аниме\Shiza\Легенда о Гранкресте\[SHIZA Project] Grancrest Senki TV [22] [nDrOiDze & Lizaveta]_HEVC.mkv':
  Metadata:
    ENCODER         : Lavf61.7.100
  Duration: 00:23:41.10, start: -0.021000, bitrate: 703 kb/s
  Stream #0:0(jpn): Video: hevc (Main 10), yuv420p10le(tv, bt709, progressive), 1280x720 [SAR 1:1 DAR 16:9], 23.81 fps, 23.81 tbr, 1k tbn (default)
      Metadata:
        title           : [SHIZA Project] Grancrest Senki TV [WEBRip]
        ENCODER         : Lavc61.19.100 libx265
        BPS             : 504959
        DURATION        : 00:23:40.062000000
        NUMBER_OF_FRAMES: 34048
        NUMBER_OF_BYTES : 89634193
        _STATISTICS_WRITING_APP: mkvpropedit v66.0.0 ('Josie') 64-bit
        _STATISTICS_WRITING_DATE_UTC: 2025-07-16 11:36:30
        _STATISTICS_TAGS: BPS DURATION NUMBER_OF_FRAMES NUMBER_OF_BYTES
  Stream #0:1(rus): Audio: aac (LC), 48000 Hz, stereo, fltp (default)
      Metadata:
        title           : nDrOiDze & Lizaveta
        ENCODER         : Lavc61.19.100 aac
        BPS             : 195341
        DURATION        : 00:23:41.077000000
        NUMBER_OF_FRAMES: 66614
        NUMBER_OF_BYTES : 34699489
        _STATISTICS_WRITING_APP: mkvpropedit v66.0.0 ('Josie') 64-bit
        _STATISTICS_WRITING_DATE_UTC: 2025-07-16 11:36:30
        _STATISTICS_TAGS: BPS DURATION NUMBER_OF_FRAMES NUMBER_OF_BYTES
Input #1, matroska,webm, from 'G:\Аниме\Shiza\Легенда о Гранкресте\[SHIZA Project] Grancrest Senki TV [22] [nDrOiDze & Lizaveta].mkv':
  Metadata:
    encoder         : libebml v1.3.4 + libmatroska v1.4.5
    creation_time   : 2018-06-15T19:06:17.000000Z
  Duration: 00:23:41.08, start: 0.000000, bitrate: 1967 kb/s
  Stream #1:0(jpn): Video: h264 (High), yuv420p(progressive), 1280x720 [SAR 1:1 DAR 16:9], 23.81 fps, 23.81 tbr, 1k tbn (default)
      Metadata:
        title           : [SHIZA Project] Grancrest Senki TV [WEBRip]
        BPS             : 1769662
        BPS-eng         : 1769662
        DURATION        : 00:23:40.045000000
        DURATION-eng    : 00:23:40.045000000
        NUMBER_OF_FRAMES: 34048
        NUMBER_OF_FRAMES-eng: 34048
        NUMBER_OF_BYTES : 314125073
        NUMBER_OF_BYTES-eng: 314125073
        _STATISTICS_WRITING_APP: mkvmerge v10.0.0 ('To Drown In You') 64bit
        _STATISTICS_WRITING_APP-eng: mkvmerge v10.0.0 ('To Drown In You') 64bit
        _STATISTICS_WRITING_DATE_UTC: 2018-06-15 19:06:17
        _STATISTICS_WRITING_DATE_UTC-eng: 2018-06-15 19:06:17
        _STATISTICS_TAGS: BPS DURATION NUMBER_OF_FRAMES NUMBER_OF_BYTES
        _STATISTICS_TAGS-eng: BPS DURATION NUMBER_OF_FRAMES NUMBER_OF_BYTES
  Stream #1:1(rus): Audio: aac (LC), 48000 Hz, stereo, fltp (default)
      Metadata:
        title           : nDrOiDze & Lizaveta
        BPS             : 195269
        BPS-eng         : 195269
        DURATION        : 00:23:41.077000000
        DURATION-eng    : 00:23:41.077000000
        NUMBER_OF_FRAMES: 66613
        NUMBER_OF_FRAMES-eng: 66613
        NUMBER_OF_BYTES : 34686664
        NUMBER_OF_BYTES-eng: 34686664
        _STATISTICS_WRITING_APP: mkvmerge v10.0.0 ('To Drown In You') 64bit
        _STATISTICS_WRITING_APP-eng: mkvmerge v10.0.0 ('To Drown In You') 64bit
        _STATISTICS_WRITING_DATE_UTC: 2018-06-15 19:06:17
        _STATISTICS_WRITING_DATE_UTC-eng: 2018-06-15 19:06:17
        _STATISTICS_TAGS: BPS DURATION NUMBER_OF_FRAMES NUMBER_OF_BYTES
        _STATISTICS_TAGS-eng: BPS DURATION NUMBER_OF_FRAMES NUMBER_OF_BYTES
  Stream #1:2: Attachment: ttf
      Metadata:
        filename        : OpenSans-Semibold.ttf
        mimetype        : application/x-truetype-font
Stream mapping:
  Stream #0:0 (hevc) -> settb:default
  Stream #1:0 (h264) -> settb:default
  psnr:default -> Stream #0:0 (wrapped_avframe)
  Stream #0:1 -> #0:1 (aac (native) -> pcm_s16le (native))
[swscaler @ 000002a4120b50c0] No accelerated colorspace conversion found from yuv420p to bgr48le.
[swscaler @ 000002a412224300] No accelerated colorspace conversion found from yuv420p to bgr48le.
[swscaler @ 000002a4123d9ec0] No accelerated colorspace conversion found from yuv420p to bgr48le.
[swscaler @ 000002a4124dd780] No accelerated colorspace conversion found from yuv420p to bgr48le.
[swscaler @ 000002a412571340] No accelerated colorspace conversion found from yuv420p to bgr48le.
[swscaler @ 000002a4125cbb40] No accelerated colorspace conversion found from yuv420p to bgr48le.
[swscaler @ 000002a412664040] No accelerated colorspace conversion found from yuv420p to bgr48le.
[swscaler @ 000002a4126bf040] No accelerated colorspace conversion found from yuv420p to bgr48le.
[swscaler @ 000002a412729040] No accelerated colorspace conversion found from yuv420p to bgr48le.
[swscaler @ 000002a412784040] No accelerated colorspace conversion found from yuv420p to bgr48le.
[swscaler @ 000002a412813040] No accelerated colorspace conversion found from yuv420p to bgr48le.
[swscaler @ 000002a41287c040] No accelerated colorspace conversion found from yuv420p to bgr48le.
[swscaler @ 000002a41289a880] No accelerated colorspace conversion found from yuv420p to bgr48le.
[swscaler @ 000002a416968040] No accelerated colorspace conversion found from yuv420p to bgr48le.
[swscaler @ 000002a4169cb040] No accelerated colorspace conversion found from yuv420p to bgr48le.
[swscaler @ 000002a416a44040] No accelerated colorspace conversion found from yuv420p to bgr48le.
Output #0, null, to 'pipe:':
  Metadata:
    encoder         : Lavf61.7.100
  Stream #0:0: Video: wrapped_avframe, yuv420p10le(tv, bt709, progressive), 1280x720 [SAR 1:1 DAR 16:9], q=2-31, 200 kb/s, 23.98 fps, 23.98 tbn
      Metadata:
        encoder         : Lavc61.19.100 wrapped_avframe
  Stream #0:1(rus): Audio: pcm_s16le, 48000 Hz, stereo, s16, 1536 kb/s (default)
      Metadata:
        title           : nDrOiDze & Lizaveta
        _STATISTICS_TAGS: BPS DURATION NUMBER_OF_FRAMES NUMBER_OF_BYTES
        BPS             : 195341
        DURATION        : 00:23:41.077000000
        NUMBER_OF_FRAMES: 66614
        NUMBER_OF_BYTES : 34699489
        _STATISTICS_WRITING_APP: mkvpropedit v66.0.0 ('Josie') 64-bit
        _STATISTICS_WRITING_DATE_UTC: 2025-07-16 11:36:30
        encoder         : Lavc61.19.100 pcm_s16le
frame=   85 fps=0.0 q=-0.0 size=N/A time=00:00:03.54 bitrate=N/A speed=6.86x    frame=  186 fps=180 q=-0.0 size=N/A time=00:00:07.75 bitrate=N/A speed=7.51x    frame=  282 fps=183 q=-0.0 size=N/A time=00:00:11.76 bitrate=N/A speed=7.62x    frame=  370 fps=180 q=-0.0 size=N/A time=00:00:15.43 bitrate=N/A speed=7.52x    frame=  468 fps=182 q=-0.0 size=N/A time=00:00:19.51 bitrate=N/A speed=7.57x    frame=  569 fps=184 q=-0.0 size=N/A time=00:00:23.73 bitrate=N/A speed=7.69x    frame=  663 fps=184 q=-0.0 size=N/A time=00:00:27.65 bitrate=N/A speed=7.65x    frame=  755 fps=183 q=-0.0 size=N/A time=00:00:31.48 bitrate=N/A speed=7.64x    frame=  848 fps=183 q=-0.0 size=N/A time=00:00:35.36 bitrate=N/A speed=7.63x    frame=  942 fps=183 q=-0.0 size=N/A time=00:00:39.28 bitrate=N/A speed=7.62x    frame= 1038 fps=183 q=-0.0 size=N/A time=00:00:43.29 bitrate=N/A speed=7.64x    frame= 1131 fps=183 q=-0.0 size=N/A time=00:00:47.17 bitrate=N/A speed=7.63x    frame= 1231 fps=184 q=-0.0 size=N/A time=00:00:51.34 bitrate=N/A speed=7.66x    frame= 1327 fps=184 q=-0.0 size=N/A time=00:00:55.34 bitrate=N/A speed=7.67x    frame= 1419 fps=183 q=-0.0 size=N/A time=00:00:59.18 bitrate=N/A speed=7.65x    frame= 1502 fps=182 q=-0.0 size=N/A time=00:01:02.64 bitrate=N/A speed= 7.6x    frame= 1602 fps=183 q=-0.0 size=N/A time=00:01:06.81 bitrate=N/A speed=7.62x    frame= 1697 fps=183 q=-0.0 size=N/A time=00:01:10.77 bitrate=N/A speed=7.63x    frame= 1797 fps=183 q=-0.0 size=N/A time=00:01:14.94 bitrate=N/A speed=7.65x    frame= 1888 fps=183 q=-0.0 size=N/A time=00:01:18.74 bitrate=N/A speed=7.64x    frame= 1990 fps=184 q=-0.0 size=N/A time=00:01:22.99 bitrate=N/A speed=7.67x    frame= 2084 fps=184 q=-0.0 size=N/A time=00:01:26.92 bitrate=N/A speed=7.67x    frame= 2179 fps=184 q=-0.0 size=N/A time=00:01:30.88 bitrate=N/A speed=7.66x    frame= 2267 fps=183 q=-0.0 size=N/A time=00:01:34.55 bitrate=N/A speed=7.65x    frame= 2358 fps=183 q=-0.0 size=N/A time=00:01:38.34 bitrate=N/A speed=7.63x    frame= 2448 fps=183 q=-0.0 size=N/A time=00:01:42.10 bitrate=N/A speed=7.61x    frame= 2548 fps=183 q=-0.0 size=N/A time=00:01:46.27 bitrate=N/A speed=7.64x    frame= 2649 fps=183 q=-0.0 size=N/A time=00:01:50.48 bitrate=N/A speed=7.65x    frame= 2738 fps=183 q=-0.0 size=N/A time=00:01:54.19 bitrate=N/A speed=7.64x    frame= 2849 fps=184 q=-0.0 size=N/A time=00:01:58.82 bitrate=N/A speed=7.68x    frame= 2945 fps=184 q=-0.0 size=N/A time=00:02:02.83 bitrate=N/A speed=7.69x    frame= 3042 fps=184 q=-0.0 size=N/A time=00:02:06.87 bitrate=N/A speed=7.69x    frame= 3132 fps=184 q=-0.0 size=N/A time=00:02:10.63 bitrate=N/A speed=7.68x    frame= 3232 fps=184 q=-0.0 size=N/A time=00:02:14.80 bitrate=N/A speed=7.69x    frame= 3321 fps=184 q=-0.0 size=N/A time=00:02:18.51 bitrate=N/A speed=7.68x    frame= 3424 fps=184 q=-0.0 size=N/A time=00:02:22.80 bitrate=N/A speed=7.69x    frame= 3522 fps=185 q=-0.0 size=N/A time=00:02:26.89 bitrate=N/A speed= 7.7x    frame= 3616 fps=185 q=-0.0 size=N/A time=00:02:30.81 bitrate=N/A speed= 7.7x    frame= 3701 fps=184 q=-0.0 size=N/A time=00:02:34.36 bitrate=N/A speed=7.68x    frame= 3806 fps=185 q=-0.0 size=N/A time=00:02:38.74 bitrate=N/A speed= 7.7x    frame= 3897 fps=184 q=-0.0 size=N/A time=00:02:42.53 bitrate=N/A speed=7.69x    frame= 3990 fps=184 q=-0.0 size=N/A time=00:02:46.41 bitrate=N/A speed=7.69x    frame= 4083 fps=184 q=-0.0 size=N/A time=00:02:50.29 bitrate=N/A speed=7.68x    frame= 4166 fps=184 q=-0.0 size=N/A time=00:02:53.75 bitrate=N/A speed=7.66x    frame= 4253 fps=183 q=-0.0 size=N/A time=00:02:57.38 bitrate=N/A speed=7.65x    frame= 4340 fps=183 q=-0.0 size=N/A time=00:03:01.01 bitrate=N/A speed=7.63x    frame= 4428 fps=183 q=-0.0 size=N/A time=00:03:04.68 bitrate=N/A speed=7.62x    frame= 4524 fps=183 q=-0.0 size=N/A time=00:03:08.68 bitrate=N/A speed=7.62x    frame= 4619 fps=183 q=-0.0 size=N/A time=00:03:12.65 bitrate=N/A speed=7.62x    frame= 4719 fps=183 q=-0.0 size=N/A time=00:03:16.82 bitrate=N/A speed=7.63x    frame= 4816 fps=183 q=-0.0 size=N/A time=00:03:20.86 bitrate=N/A speed=7.63x    frame= 4902 fps=183 q=-0.0 size=N/A time=00:03:24.45 bitrate=N/A speed=7.62x    frame= 4998 fps=183 q=-0.0 size=N/A time=00:03:28.45 bitrate=N/A speed=7.63x    frame= 5091 fps=183 q=-0.0 size=N/A time=00:03:32.33 bitrate=N/A speed=7.62x    frame= 5177 fps=183 q=-0.0 size=N/A time=00:03:35.92 bitrate=N/A speed=7.61x    frame= 5279 fps=183 q=-0.0 size=N/A time=00:03:40.17 bitrate=N/A speed=7.62x    frame= 5373 fps=183 q=-0.0 size=N/A time=00:03:44.09 bitrate=N/A speed=7.62x    frame= 5461 fps=183 q=-0.0 size=N/A time=00:03:47.76 bitrate=N/A speed=7.61x    frame= 5563 fps=183 q=-0.0 size=N/A time=00:03:52.02 bitrate=N/A speed=7.63x    frame= 5659 fps=183 q=-0.0 size=N/A time=00:03:56.02 bitrate=N/A speed=7.63x    frame= 5757 fps=183 q=-0.0 size=N/A time=00:04:00.11 bitrate=N/A speed=7.63x    frame= 5852 fps=183 q=-0.0 size=N/A time=00:04:04.07 bitrate=N/A speed=7.63x    frame= 5946 fps=183 q=-0.0 size=N/A time=00:04:07.99 bitrate=N/A speed=7.63x    frame= 6045 fps=183 q=-0.0 size=N/A time=00:04:12.12 bitrate=N/A speed=7.63x    frame= 6136 fps=183 q=-0.0 size=N/A time=00:04:15.92 bitrate=N/A speed=7.63x    frame= 6234 fps=183 q=-0.0 size=N/A time=00:04:20.00 bitrate=N/A speed=7.64x    frame= 6327 fps=183 q=-0.0 size=N/A time=00:04:23.88 bitrate=N/A speed=7.63x    frame= 6423 fps=183 q=-0.0 size=N/A time=00:04:27.89 bitrate=N/A speed=7.63x    frame= 6512 fps=183 q=-0.0 size=N/A time=00:04:31.60 bitrate=N/A speed=7.63x    frame= 6602 fps=183 q=-0.0 size=N/A time=00:04:35.35 bitrate=N/A speed=7.62x    frame= 6709 fps=183 q=-0.0 size=N/A time=00:04:39.82 bitrate=N/A speed=7.64x    frame= 6796 fps=183 q=-0.0 size=N/A time=00:04:43.44 bitrate=N/A speed=7.63x    frame= 6902 fps=183 q=-0.0 size=N/A time=00:04:47.87 bitrate=N/A speed=7.64x    frame= 6989 fps=183 q=-0.0 size=N/A time=00:04:51.49 bitrate=N/A speed=7.63x    frame= 7091 fps=183 q=-0.0 size=N/A time=00:04:55.75 bitrate=N/A speed=7.64x    frame= 7188 fps=183 q=-0.0 size=N/A time=00:04:59.79 bitrate=N/A speed=7.65x    frame= 7288 fps=183 q=-0.0 size=N/A time=00:05:03.97 bitrate=N/A speed=7.65x    frame= 7375 fps=183 q=-0.0 size=N/A time=00:05:07.59 bitrate=N/A speed=7.64x    frame= 7473 fps=183 q=-0.0 size=N/A time=00:05:11.68 bitrate=N/A speed=7.65x    frame= 7562 fps=183 q=-0.0 size=N/A time=00:05:15.39 bitrate=N/A speed=7.64x    frame= 7662 fps=183 q=-0.0 size=N/A time=00:05:19.56 bitrate=N/A speed=7.65x    frame= 7756 fps=183 q=-0.0 size=N/A time=00:05:23.48 bitrate=N/A speed=7.65x    frame= 7854 fps=183 q=-0.0 size=N/A time=00:05:27.57 bitrate=N/A speed=7.65x    frame= 7950 fps=183 q=-0.0 size=N/A time=00:05:31.58 bitrate=N/A speed=7.65x    frame= 8047 fps=183 q=-0.0 size=N/A time=00:05:35.62 bitrate=N/A speed=7.65x    frame= 8141 fps=183 q=-0.0 size=N/A time=00:05:39.54 bitrate=N/A speed=7.65x    frame= 8233 fps=183 q=-0.0 size=N/A time=00:05:43.38 bitrate=N/A speed=7.65x    frame= 8330 fps=183 q=-0.0 size=N/A time=00:05:47.43 bitrate=N/A speed=7.65x    frame= 8426 fps=183 q=-0.0 size=N/A time=00:05:51.43 bitrate=N/A speed=7.65x    frame= 8513 fps=183 q=-0.0 size=N/A time=00:05:55.06 bitrate=N/A speed=7.65x    frame= 8619 fps=184 q=-0.0 size=N/A time=00:05:59.48 bitrate=N/A speed=7.66x    frame= 8713 fps=184 q=-0.0 size=N/A time=00:06:03.40 bitrate=N/A speed=7.66x    frame= 8813 fps=184 q=-0.0 size=N/A time=00:06:07.57 bitrate=N/A speed=7.66x    frame= 8907 fps=184 q=-0.0 size=N/A time=00:06:11.49 bitrate=N/A speed=7.66x    frame= 9003 fps=184 q=-0.0 size=N/A time=00:06:15.50 bitrate=N/A speed=7.66x    frame= 9097 fps=184 q=-0.0 size=N/A time=00:06:19.42 bitrate=N/A speed=7.66x    frame= 9196 fps=184 q=-0.0 size=N/A time=00:06:23.54 bitrate=N/A speed=7.66x    frame= 9291 fps=184 q=-0.0 size=N/A time=00:06:27.51 bitrate=N/A speed=7.66x    frame= 9384 fps=184 q=-0.0 size=N/A time=00:06:31.39 bitrate=N/A speed=7.66x    frame= 9478 fps=184 q=-0.0 size=N/A time=00:06:35.31 bitrate=N/A speed=7.66x    frame= 9573 fps=184 q=-0.0 size=N/A time=00:06:39.27 bitrate=N/A speed=7.66x    frame= 9671 fps=184 q=-0.0 size=N/A time=00:06:43.36 bitrate=N/A speed=7.66x    frame= 9765 fps=184 q=-0.0 size=N/A time=00:06:47.28 bitrate=N/A speed=7.67x    frame= 9863 fps=184 q=-0.0 size=N/A time=00:06:51.36 bitrate=N/A speed=7.67x    frame= 9947 fps=184 q=-0.0 size=N/A time=00:06:54.87 bitrate=N/A speed=7.66x    frame=10051 fps=184 q=-0.0 size=N/A time=00:06:59.21 bitrate=N/A speed=7.67x    frame=10143 fps=184 q=-0.0 size=N/A time=00:07:03.04 bitrate=N/A speed=7.66x    frame=10235 fps=184 q=-0.0 size=N/A time=00:07:06.88 bitrate=N/A speed=7.66x    frame=10326 fps=184 q=-0.0 size=N/A time=00:07:10.68 bitrate=N/A speed=7.66x    frame=10422 fps=184 q=-0.0 size=N/A time=00:07:14.68 bitrate=N/A speed=7.66x    frame=10504 fps=183 q=-0.0 size=N/A time=00:07:18.10 bitrate=N/A speed=7.65x    frame=10607 fps=184 q=-0.0 size=N/A time=00:07:22.40 bitrate=N/A speed=7.66x    frame=10698 fps=184 q=-0.0 size=N/A time=00:07:26.19 bitrate=N/A speed=7.65x    frame=10799 fps=184 q=-0.0 size=N/A time=00:07:30.40 bitrate=N/A speed=7.66x    frame=10904 fps=184 q=-0.0 size=N/A time=00:07:34.78 bitrate=N/A speed=7.67x    frame=11000 fps=184 q=-0.0 size=N/A time=00:07:38.79 bitrate=N/A speed=7.67x    frame=11096 fps=184 q=-0.0 size=N/A time=00:07:42.79 bitrate=N/A speed=7.67x    frame=11187 fps=184 q=-0.0 size=N/A time=00:07:46.59 bitrate=N/A speed=7.66x    frame=11295 fps=184 q=-0.0 size=N/A time=00:07:51.09 bitrate=N/A speed=7.67x    frame=11388 fps=184 q=-0.0 size=N/A time=00:07:54.97 bitrate=N/A speed=7.67x    frame=11480 fps=184 q=-0.0 size=N/A time=00:07:58.81 bitrate=N/A speed=7.67x    frame=11567 fps=184 q=-0.0 size=N/A time=00:08:02.44 bitrate=N/A speed=7.66x    frame=11675 fps=184 q=-0.0 size=N/A time=00:08:06.94 bitrate=N/A speed=7.67x    frame=11769 fps=184 q=-0.0 size=N/A time=00:08:10.86 bitrate=N/A speed=7.67x    frame=11870 fps=184 q=-0.0 size=N/A time=00:08:15.07 bitrate=N/A speed=7.68x    frame=11965 fps=184 q=-0.0 size=N/A time=00:08:19.04 bitrate=N/A speed=7.68x    frame=12054 fps=184 q=-0.0 size=N/A time=00:08:22.75 bitrate=N/A speed=7.67x    frame=12147 fps=184 q=-0.0 size=N/A time=00:08:26.63 bitrate=N/A speed=7.67x    frame=12234 fps=184 q=-0.0 size=N/A time=00:08:30.25 bitrate=N/A speed=7.67x    frame=12335 fps=184 q=-0.0 size=N/A time=00:08:34.47 bitrate=N/A speed=7.67x    frame=12442 fps=184 q=-0.0 size=N/A time=00:08:38.93 bitrate=N/A speed=7.68x    frame=12541 fps=184 q=-0.0 size=N/A time=00:08:43.06 bitrate=N/A speed=7.68x    frame=12637 fps=184 q=-0.0 size=N/A time=00:08:47.06 bitrate=N/A speed=7.68x    frame=12733 fps=184 q=-0.0 size=N/A time=00:08:51.07 bitrate=N/A speed=7.68x    frame=12833 fps=184 q=-0.0 size=N/A time=00:08:55.24 bitrate=N/A speed=7.68x    frame=12932 fps=184 q=-0.0 size=N/A time=00:08:59.37 bitrate=N/A speed=7.69x    frame=13028 fps=184 q=-0.0 size=N/A time=00:09:03.37 bitrate=N/A speed=7.69x    frame=13127 fps=184 q=-0.0 size=N/A time=00:09:07.50 bitrate=N/A speed=7.69x    frame=13221 fps=184 q=-0.0 size=N/A time=00:09:11.42 bitrate=N/A speed=7.69x    frame=13304 fps=184 q=-0.0 size=N/A time=00:09:14.88 bitrate=N/A speed=7.68x    frame=13407 fps=184 q=-0.0 size=N/A time=00:09:19.18 bitrate=N/A speed=7.69x    frame=13495 fps=184 q=-0.0 size=N/A time=00:09:22.85 bitrate=N/A speed=7.68x    frame=13596 fps=184 q=-0.0 size=N/A time=00:09:27.06 bitrate=N/A speed=7.69x    frame=13690 fps=184 q=-0.0 size=N/A time=00:09:30.98 bitrate=N/A speed=7.69x    frame=13785 fps=184 q=-0.0 size=N/A time=00:09:34.94 bitrate=N/A speed=7.68x    frame=13876 fps=184 q=-0.0 size=N/A time=00:09:38.74 bitrate=N/A speed=7.68x    frame=13970 fps=184 q=-0.0 size=N/A time=00:09:42.66 bitrate=N/A speed=7.68x    frame=14064 fps=184 q=-0.0 size=N/A time=00:09:46.58 bitrate=N/A speed=7.68x    frame=14154 fps=184 q=-0.0 size=N/A time=00:09:50.33 bitrate=N/A speed=7.68x    frame=14253 fps=184 q=-0.0 size=N/A time=00:09:54.46 bitrate=N/A speed=7.68x    frame=14345 fps=184 q=-0.0 size=N/A time=00:09:58.30 bitrate=N/A speed=7.68x    frame=14438 fps=184 q=-0.0 size=N/A time=00:10:02.18 bitrate=N/A speed=7.68x    frame=14537 fps=184 q=-0.0 size=N/A time=00:10:06.31 bitrate=N/A speed=7.68x    frame=14629 fps=184 q=-0.0 size=N/A time=00:10:10.15 bitrate=N/A speed=7.68x    frame=14724 fps=184 q=-0.0 size=N/A time=00:10:14.11 bitrate=N/A speed=7.68x    frame=14816 fps=184 q=-0.0 size=N/A time=00:10:17.95 bitrate=N/A speed=7.68x    frame=14909 fps=184 q=-0.0 size=N/A time=00:10:21.82 bitrate=N/A speed=7.68x    frame=14992 fps=184 q=-0.0 size=N/A time=00:10:25.29 bitrate=N/A speed=7.67x    frame=15085 fps=184 q=-0.0 size=N/A time=00:10:29.17 bitrate=N/A speed=7.67x    frame=15174 fps=184 q=-0.0 size=N/A time=00:10:32.88 bitrate=N/A speed=7.67x    frame=15255 fps=184 q=-0.0 size=N/A time=00:10:36.26 bitrate=N/A speed=7.66x    frame=15349 fps=184 q=-0.0 size=N/A time=00:10:40.18 bitrate=N/A speed=7.66x    frame=15446 fps=184 q=-0.0 size=N/A time=00:10:44.22 bitrate=N/A speed=7.66x    frame=15540 fps=184 q=-0.0 size=N/A time=00:10:48.14 bitrate=N/A speed=7.66x    frame=15627 fps=184 q=-0.0 size=N/A time=00:10:51.77 bitrate=N/A speed=7.66x    frame=15730 fps=184 q=-0.0 size=N/A time=00:10:56.07 bitrate=N/A speed=7.66x    frame=15824 fps=184 q=-0.0 size=N/A time=00:10:59.99 bitrate=N/A speed=7.66x    frame=15921 fps=184 q=-0.0 size=N/A time=00:11:04.03 bitrate=N/A speed=7.66x    frame=16016 fps=184 q=-0.0 size=N/A time=00:11:08.00 bitrate=N/A speed=7.66x    frame=16113 fps=184 q=-0.0 size=N/A time=00:11:12.04 bitrate=N/A speed=7.66x    frame=16197 fps=184 q=-0.0 size=N/A time=00:11:15.54 bitrate=N/A speed=7.66x    frame=16300 fps=184 q=-0.0 size=N/A time=00:11:19.84 bitrate=N/A speed=7.66x    frame=16389 fps=184 q=-0.0 size=N/A time=00:11:23.55 bitrate=N/A speed=7.66x    frame=16487 fps=184 q=-0.0 size=N/A time=00:11:27.64 bitrate=N/A speed=7.66x    frame=16583 fps=184 q=-0.0 size=N/A time=00:11:31.64 bitrate=N/A speed=7.66x    frame=16681 fps=184 q=-0.0 size=N/A time=00:11:35.73 bitrate=N/A speed=7.66x    frame=16778 fps=184 q=-0.0 size=N/A time=00:11:39.78 bitrate=N/A speed=7.66x    frame=16874 fps=184 q=-0.0 size=N/A time=00:11:43.78 bitrate=N/A speed=7.66x    frame=16964 fps=184 q=-0.0 size=N/A time=00:11:47.54 bitrate=N/A speed=7.66x    frame=17061 fps=184 q=-0.0 size=N/A time=00:11:51.58 bitrate=N/A speed=7.66x    frame=17155 fps=184 q=-0.0 size=N/A time=00:11:55.50 bitrate=N/A speed=7.66x    frame=17246 fps=184 q=-0.0 size=N/A time=00:11:59.30 bitrate=N/A speed=7.66x    frame=17348 fps=184 q=-0.0 size=N/A time=00:12:03.55 bitrate=N/A speed=7.66x    frame=17445 fps=184 q=-0.0 size=N/A time=00:12:07.60 bitrate=N/A speed=7.67x    frame=17543 fps=184 q=-0.0 size=N/A time=00:12:11.68 bitrate=N/A speed=7.67x    frame=17628 fps=184 q=-0.0 size=N/A time=00:12:15.23 bitrate=N/A speed=7.66x    frame=17723 fps=184 q=-0.0 size=N/A time=00:12:19.19 bitrate=N/A speed=7.66x    frame=17820 fps=184 q=-0.0 size=N/A time=00:12:23.24 bitrate=N/A speed=7.66x    frame=17913 fps=184 q=-0.0 size=N/A time=00:12:27.12 bitrate=N/A speed=7.66x    frame=18008 fps=184 q=-0.0 size=N/A time=00:12:31.08 bitrate=N/A speed=7.66x    frame=18100 fps=184 q=-0.0 size=N/A time=00:12:34.92 bitrate=N/A speed=7.66x    frame=18189 fps=184 q=-0.0 size=N/A time=00:12:38.63 bitrate=N/A speed=7.66x    frame=18292 fps=184 q=-0.0 size=N/A time=00:12:42.92 bitrate=N/A speed=7.66x    frame=18371 fps=184 q=-0.0 size=N/A time=00:12:46.22 bitrate=N/A speed=7.66x    frame=18468 fps=184 q=-0.0 size=N/A time=00:12:50.26 bitrate=N/A speed=7.66x    frame=18569 fps=184 q=-0.0 size=N/A time=00:12:54.48 bitrate=N/A speed=7.66x    frame=18662 fps=184 q=-0.0 size=N/A time=00:12:58.36 bitrate=N/A speed=7.66x    frame=18749 fps=184 q=-0.0 size=N/A time=00:13:01.98 bitrate=N/A speed=7.66x    frame=18841 fps=184 q=-0.0 size=N/A time=00:13:05.82 bitrate=N/A speed=7.66x    frame=18923 fps=183 q=-0.0 size=N/A time=00:13:09.24 bitrate=N/A speed=7.65x    frame=19022 fps=183 q=-0.0 size=N/A time=00:13:13.37 bitrate=N/A speed=7.65x    frame=19117 fps=183 q=-0.0 size=N/A time=00:13:17.33 bitrate=N/A speed=7.65x    frame=19212 fps=183 q=-0.0 size=N/A time=00:13:21.30 bitrate=N/A speed=7.65x    frame=19306 fps=183 q=-0.0 size=N/A time=00:13:25.22 bitrate=N/A speed=7.65x    frame=19403 fps=183 q=-0.0 size=N/A time=00:13:29.26 bitrate=N/A speed=7.65x    frame=19496 fps=183 q=-0.0 size=N/A time=00:13:33.14 bitrate=N/A speed=7.65x    frame=19592 fps=183 q=-0.0 size=N/A time=00:13:37.14 bitrate=N/A speed=7.65x    frame=19688 fps=184 q=-0.0 size=N/A time=00:13:41.15 bitrate=N/A speed=7.65x    frame=19789 fps=184 q=-0.0 size=N/A time=00:13:45.36 bitrate=N/A speed=7.66x    frame=19886 fps=184 q=-0.0 size=N/A time=00:13:49.41 bitrate=N/A speed=7.66x    frame=19983 fps=184 q=-0.0 size=N/A time=00:13:53.45 bitrate=N/A speed=7.66x    frame=20082 fps=184 q=-0.0 size=N/A time=00:13:57.58 bitrate=N/A speed=7.66x    frame=20178 fps=184 q=-0.0 size=N/A time=00:14:01.59 bitrate=N/A speed=7.66x    frame=20276 fps=184 q=-0.0 size=N/A time=00:14:05.67 bitrate=N/A speed=7.66x    frame=20382 fps=184 q=-0.0 size=N/A time=00:14:10.09 bitrate=N/A speed=7.67x    frame=20478 fps=184 q=-0.0 size=N/A time=00:14:14.10 bitrate=N/A speed=7.67x    frame=20576 fps=184 q=-0.0 size=N/A time=00:14:18.19 bitrate=N/A speed=7.67x    frame=20674 fps=184 q=-0.0 size=N/A time=00:14:22.27 bitrate=N/A speed=7.67x    frame=20772 fps=184 q=-0.0 size=N/A time=00:14:26.36 bitrate=N/A speed=7.67x    frame=20873 fps=184 q=-0.0 size=N/A time=00:14:30.57 bitrate=N/A speed=7.67x    frame=20964 fps=184 q=-0.0 size=N/A time=00:14:34.37 bitrate=N/A speed=7.67x    frame=21058 fps=184 q=-0.0 size=N/A time=00:14:38.29 bitrate=N/A speed=7.67x    frame=21149 fps=184 q=-0.0 size=N/A time=00:14:42.08 bitrate=N/A speed=7.67x    frame=21243 fps=184 q=-0.0 size=N/A time=00:14:46.01 bitrate=N/A speed=7.67x    frame=21336 fps=184 q=-0.0 size=N/A time=00:14:49.88 bitrate=N/A speed=7.67x    frame=21432 fps=184 q=-0.0 size=N/A time=00:14:53.89 bitrate=N/A speed=7.67x    frame=21524 fps=184 q=-0.0 size=N/A time=00:14:57.73 bitrate=N/A speed=7.67x    frame=21604 fps=184 q=-0.0 size=N/A time=00:15:01.06 bitrate=N/A speed=7.66x    frame=21696 fps=184 q=-0.0 size=N/A time=00:15:04.90 bitrate=N/A speed=7.66x    frame=21802 fps=184 q=-0.0 size=N/A time=00:15:09.32 bitrate=N/A speed=7.66x    frame=21889 fps=184 q=-0.0 size=N/A time=00:15:12.95 bitrate=N/A speed=7.66x    frame=21990 fps=184 q=-0.0 size=N/A time=00:15:17.16 bitrate=N/A speed=7.66x    frame=22079 fps=184 q=-0.0 size=N/A time=00:15:20.87 bitrate=N/A speed=7.66x    frame=22180 fps=184 q=-0.0 size=N/A time=00:15:25.09 bitrate=N/A speed=7.66x    frame=22277 fps=184 q=-0.0 size=N/A time=00:15:29.13 bitrate=N/A speed=7.67x    frame=22373 fps=184 q=-0.0 size=N/A time=00:15:33.14 bitrate=N/A speed=7.67x    frame=22464 fps=184 q=-0.0 size=N/A time=00:15:36.93 bitrate=N/A speed=7.66x    frame=22572 fps=184 q=-0.0 size=N/A time=00:15:41.44 bitrate=N/A speed=7.67x    frame=22669 fps=184 q=-0.0 size=N/A time=00:15:45.48 bitrate=N/A speed=7.67x    frame=22769 fps=184 q=-0.0 size=N/A time=00:15:49.65 bitrate=N/A speed=7.67x    frame=22853 fps=184 q=-0.0 size=N/A time=00:15:53.16 bitrate=N/A speed=7.67x    frame=22949 fps=184 q=-0.0 size=N/A time=00:15:57.16 bitrate=N/A speed=7.67x    frame=23045 fps=184 q=-0.0 size=N/A time=00:16:01.16 bitrate=N/A speed=7.67x    frame=23136 fps=184 q=-0.0 size=N/A time=00:16:04.96 bitrate=N/A speed=7.67x    frame=23226 fps=184 q=-0.0 size=N/A time=00:16:08.71 bitrate=N/A speed=7.67x    frame=23323 fps=184 q=-0.0 size=N/A time=00:16:12.76 bitrate=N/A speed=7.67x    frame=23423 fps=184 q=-0.0 size=N/A time=00:16:16.93 bitrate=N/A speed=7.67x    frame=23514 fps=184 q=-0.0 size=N/A time=00:16:20.72 bitrate=N/A speed=7.67x    frame=23606 fps=184 q=-0.0 size=N/A time=00:16:24.56 bitrate=N/A speed=7.67x    frame=23695 fps=184 q=-0.0 size=N/A time=00:16:28.27 bitrate=N/A speed=7.66x    frame=23781 fps=184 q=-0.0 size=N/A time=00:16:31.90 bitrate=N/A speed=7.66x    frame=23861 fps=184 q=-0.0 size=N/A time=00:16:35.20 bitrate=N/A speed=7.66x    frame=23962 fps=184 q=-0.0 size=N/A time=00:16:39.41 bitrate=N/A speed=7.66x    frame=24056 fps=184 q=-0.0 size=N/A time=00:16:43.33 bitrate=N/A speed=7.66x    frame=24139 fps=184 q=-0.0 size=N/A time=00:16:46.79 bitrate=N/A speed=7.65x    frame=24232 fps=184 q=-0.0 size=N/A time=00:16:50.67 bitrate=N/A speed=7.65x    frame=24336 fps=184 q=-0.0 size=N/A time=00:16:55.01 bitrate=N/A speed=7.66x    frame=24421 fps=184 q=-0.0 size=N/A time=00:16:58.55 bitrate=N/A speed=7.65x    frame=24531 fps=184 q=-0.0 size=N/A time=00:17:03.14 bitrate=N/A speed=7.66x    frame=24629 fps=184 q=-0.0 size=N/A time=00:17:07.23 bitrate=N/A speed=7.66x    frame=24722 fps=184 q=-0.0 size=N/A time=00:17:11.11 bitrate=N/A speed=7.66x    frame=24818 fps=184 q=-0.0 size=N/A time=00:17:15.11 bitrate=N/A speed=7.66x    frame=24917 fps=184 q=-0.0 size=N/A time=00:17:19.24 bitrate=N/A speed=7.66x    frame=25003 fps=184 q=-0.0 size=N/A time=00:17:22.83 bitrate=N/A speed=7.66x    frame=25102 fps=184 q=-0.0 size=N/A time=00:17:26.96 bitrate=N/A speed=7.66x    frame=25202 fps=184 q=-0.0 size=N/A time=00:17:31.13 bitrate=N/A speed=7.66x    frame=25299 fps=184 q=-0.0 size=N/A time=00:17:35.17 bitrate=N/A speed=7.66x    frame=25381 fps=184 q=-0.0 size=N/A time=00:17:38.59 bitrate=N/A speed=7.66x    frame=25488 fps=184 q=-0.0 size=N/A time=00:17:43.06 bitrate=N/A speed=7.66x    frame=25578 fps=184 q=-0.0 size=N/A time=00:17:46.81 bitrate=N/A speed=7.66x    frame=25677 fps=184 q=-0.0 size=N/A time=00:17:50.94 bitrate=N/A speed=7.66x    frame=25774 fps=184 q=-0.0 size=N/A time=00:17:54.99 bitrate=N/A speed=7.66x    frame=25868 fps=184 q=-0.0 size=N/A time=00:17:58.91 bitrate=N/A speed=7.66x    frame=25961 fps=184 q=-0.0 size=N/A time=00:18:02.79 bitrate=N/A speed=7.66x    frame=26055 fps=184 q=-0.0 size=N/A time=00:18:06.71 bitrate=N/A speed=7.66x    frame=26148 fps=184 q=-0.0 size=N/A time=00:18:10.58 bitrate=N/A speed=7.66x    frame=26244 fps=184 q=-0.0 size=N/A time=00:18:14.59 bitrate=N/A speed=7.66x    frame=26328 fps=184 q=-0.0 size=N/A time=00:18:18.09 bitrate=N/A speed=7.66x    frame=26436 fps=184 q=-0.0 size=N/A time=00:18:22.60 bitrate=N/A speed=7.66x    frame=26528 fps=184 q=-0.0 size=N/A time=00:18:26.43 bitrate=N/A speed=7.66x    frame=26629 fps=184 q=-0.0 size=N/A time=00:18:30.65 bitrate=N/A speed=7.66x    frame=26727 fps=184 q=-0.0 size=N/A time=00:18:34.73 bitrate=N/A speed=7.66x    frame=26823 fps=184 q=-0.0 size=N/A time=00:18:38.74 bitrate=N/A speed=7.66x    frame=26925 fps=184 q=-0.0 size=N/A time=00:18:42.99 bitrate=N/A speed=7.67x    frame=27021 fps=184 q=-0.0 size=N/A time=00:18:47.00 bitrate=N/A speed=7.67x    frame=27115 fps=184 q=-0.0 size=N/A time=00:18:50.92 bitrate=N/A speed=7.67x    frame=27202 fps=184 q=-0.0 size=N/A time=00:18:54.55 bitrate=N/A speed=7.66x    frame=27293 fps=184 q=-0.0 size=N/A time=00:18:58.34 bitrate=N/A speed=7.66x    frame=27375 fps=184 q=-0.0 size=N/A time=00:19:01.76 bitrate=N/A speed=7.66x    frame=27457 fps=184 q=-0.0 size=N/A time=00:19:05.18 bitrate=N/A speed=7.66x    frame=27560 fps=184 q=-0.0 size=N/A time=00:19:09.48 bitrate=N/A speed=7.66x    frame=27651 fps=184 q=-0.0 size=N/A time=00:19:13.27 bitrate=N/A speed=7.66x    frame=27751 fps=184 q=-0.0 size=N/A time=00:19:17.44 bitrate=N/A speed=7.66x    frame=27832 fps=184 q=-0.0 size=N/A time=00:19:20.82 bitrate=N/A speed=7.65x    frame=27940 fps=184 q=-0.0 size=N/A time=00:19:25.33 bitrate=N/A speed=7.66x    frame=28038 fps=184 q=-0.0 size=N/A time=00:19:29.41 bitrate=N/A speed=7.66x    frame=28131 fps=184 q=-0.0 size=N/A time=00:19:33.29 bitrate=N/A speed=7.66x    frame=28226 fps=184 q=-0.0 size=N/A time=00:19:37.25 bitrate=N/A speed=7.66x    frame=28318 fps=184 q=-0.0 size=N/A time=00:19:41.09 bitrate=N/A speed=7.66x    frame=28394 fps=183 q=-0.0 size=N/A time=00:19:44.26 bitrate=N/A speed=7.65x    frame=28497 fps=184 q=-0.0 size=N/A time=00:19:48.56 bitrate=N/A speed=7.65x    frame=28588 fps=184 q=-0.0 size=N/A time=00:19:52.35 bitrate=N/A speed=7.65x    frame=28683 fps=184 q=-0.0 size=N/A time=00:19:56.32 bitrate=N/A speed=7.65x    frame=28780 fps=184 q=-0.0 size=N/A time=00:20:00.36 bitrate=N/A speed=7.66x    frame=28877 fps=184 q=-0.0 size=N/A time=00:20:04.41 bitrate=N/A speed=7.66x    frame=28974 fps=184 q=-0.0 size=N/A time=00:20:08.45 bitrate=N/A speed=7.66x    frame=29072 fps=184 q=-0.0 size=N/A time=00:20:12.54 bitrate=N/A speed=7.66x    frame=29168 fps=184 q=-0.0 size=N/A time=00:20:16.54 bitrate=N/A speed=7.66x    frame=29261 fps=184 q=-0.0 size=N/A time=00:20:20.42 bitrate=N/A speed=7.66x    frame=29348 fps=184 q=-0.0 size=N/A time=00:20:24.05 bitrate=N/A speed=7.66x    frame=29432 fps=183 q=-0.0 size=N/A time=00:20:27.55 bitrate=N/A speed=7.65x    frame=29538 fps=184 q=-0.0 size=N/A time=00:20:31.98 bitrate=N/A speed=7.65x    frame=29633 fps=184 q=-0.0 size=N/A time=00:20:35.94 bitrate=N/A speed=7.66x    frame=29720 fps=183 q=-0.0 size=N/A time=00:20:39.57 bitrate=N/A speed=7.65x    frame=29827 fps=184 q=-0.0 size=N/A time=00:20:44.03 bitrate=N/A speed=7.66x    frame=29917 fps=184 q=-0.0 size=N/A time=00:20:47.78 bitrate=N/A speed=7.66x    frame=30016 fps=184 q=-0.0 size=N/A time=00:20:51.91 bitrate=N/A speed=7.66x    frame=30106 fps=184 q=-0.0 size=N/A time=00:20:55.67 bitrate=N/A speed=7.66x    frame=30190 fps=183 q=-0.0 size=N/A time=00:20:59.17 bitrate=N/A speed=7.65x    frame=30280 fps=183 q=-0.0 size=N/A time=00:21:02.92 bitrate=N/A speed=7.65x    frame=30374 fps=183 q=-0.0 size=N/A time=00:21:06.84 bitrate=N/A speed=7.65x    frame=30466 fps=183 q=-0.0 size=N/A time=00:21:10.68 bitrate=N/A speed=7.65x    frame=30564 fps=183 q=-0.0 size=N/A time=00:21:14.77 bitrate=N/A speed=7.65x    frame=30656 fps=183 q=-0.0 size=N/A time=00:21:18.61 bitrate=N/A speed=7.65x    frame=30756 fps=183 q=-0.0 size=N/A time=00:21:22.78 bitrate=N/A speed=7.65x    frame=30852 fps=183 q=-0.0 size=N/A time=00:21:26.78 bitrate=N/A speed=7.65x    frame=30948 fps=183 q=-0.0 size=N/A time=00:21:30.78 bitrate=N/A speed=7.65x    frame=31037 fps=183 q=-0.0 size=N/A time=00:21:34.50 bitrate=N/A speed=7.65x    frame=31131 fps=183 q=-0.0 size=N/A time=00:21:38.42 bitrate=N/A speed=7.65x    frame=31227 fps=183 q=-0.0 size=N/A time=00:21:42.42 bitrate=N/A speed=7.65x    frame=31317 fps=183 q=-0.0 size=N/A time=00:21:46.17 bitrate=N/A speed=7.65x    frame=31401 fps=183 q=-0.0 size=N/A time=00:21:49.68 bitrate=N/A speed=7.65x    frame=31511 fps=183 q=-0.0 size=N/A time=00:21:54.27 bitrate=N/A speed=7.65x    frame=31600 fps=183 q=-0.0 size=N/A time=00:21:57.98 bitrate=N/A speed=7.65x    frame=31702 fps=183 q=-0.0 size=N/A time=00:22:02.23 bitrate=N/A speed=7.65x    frame=31802 fps=183 q=-0.0 size=N/A time=00:22:06.40 bitrate=N/A speed=7.65x    frame=31895 fps=183 q=-0.0 size=N/A time=00:22:10.28 bitrate=N/A speed=7.65x    frame=31993 fps=184 q=-0.0 size=N/A time=00:22:14.37 bitrate=N/A speed=7.65x    frame=32091 fps=184 q=-0.0 size=N/A time=00:22:18.46 bitrate=N/A speed=7.65x    frame=32194 fps=184 q=-0.0 size=N/A time=00:22:22.75 bitrate=N/A speed=7.66x    frame=32278 fps=184 q=-0.0 size=N/A time=00:22:26.26 bitrate=N/A speed=7.65x    frame=32380 fps=184 q=-0.0 size=N/A time=00:22:30.51 bitrate=N/A speed=7.66x    frame=32483 fps=184 q=-0.0 size=N/A time=00:22:34.81 bitrate=N/A speed=7.66x    frame=32578 fps=184 q=-0.0 size=N/A time=00:22:38.77 bitrate=N/A speed=7.66x    frame=32676 fps=184 q=-0.0 size=N/A time=00:22:42.86 bitrate=N/A speed=7.66x    frame=32768 fps=184 q=-0.0 size=N/A time=00:22:46.69 bitrate=N/A speed=7.66x    frame=32868 fps=184 q=-0.0 size=N/A time=00:22:50.86 bitrate=N/A speed=7.66x    frame=32956 fps=184 q=-0.0 size=N/A time=00:22:54.53 bitrate=N/A speed=7.66x    frame=33057 fps=184 q=-0.0 size=N/A time=00:22:58.75 bitrate=N/A speed=7.66x    frame=33160 fps=184 q=-0.0 size=N/A time=00:23:03.04 bitrate=N/A speed=7.66x    frame=33256 fps=184 q=-0.0 size=N/A time=00:23:07.05 bitrate=N/A speed=7.66x    frame=33353 fps=184 q=-0.0 size=N/A time=00:23:11.09 bitrate=N/A speed=7.66x    frame=33450 fps=184 q=-0.0 size=N/A time=00:23:15.14 bitrate=N/A speed=7.66x    frame=33545 fps=184 q=-0.0 size=N/A time=00:23:19.10 bitrate=N/A speed=7.66x    frame=33637 fps=184 q=-0.0 size=N/A time=00:23:22.94 bitrate=N/A speed=7.66x    frame=33733 fps=184 q=-0.0 size=N/A time=00:23:26.94 bitrate=N/A speed=7.66x    frame=33839 fps=184 q=-0.0 size=N/A time=00:23:31.36 bitrate=N/A speed=7.66x    frame=33934 fps=184 q=-0.0 size=N/A time=00:23:35.33 bitrate=N/A speed=7.67x    frame=34036 fps=184 q=-0.0 size=N/A time=00:23:39.58 bitrate=N/A speed=7.67x    [Parsed_psnr_10 @ 000002a40568ef80] PSNR y:39.437021 u:47.904088 v:47.463237 average:40.883986 min:9.648971 max:inf
[out#0/null @ 000002a40570eb00] video:14630KiB audio:266456KiB subtitle:0KiB other streams:0KiB global headers:0KiB muxing overhead: unknown
frame=34047 fps=184 q=-0.0 Lsize=N/A time=00:23:40.04 bitrate=N/A speed=7.67x    
